<?xml version="1.0" encoding="UTF-8"?>
<svg width="753px" height="355px" viewBox="0 0 753 355" version="1.1" xmlns="http://www.w3.org/2000/svg" xmlns:xlink="http://www.w3.org/1999/xlink">
    <!-- Generator: Sketch 52.6 (67491) - http://www.bohemiancoding.com/sketch -->
    <title>citizenspring-logo</title>
    <desc>Created with Sketch.</desc>
    <defs>
        <linearGradient x1="50.0907751%" y1="-21.238073%" x2="49.7361071%" y2="133.476187%" id="linearGradient-1">
            <stop stop-color="#FC6575" offset="0%"></stop>
            <stop stop-color="#FCDD57" offset="100%"></stop>
        </linearGradient>
    </defs>
    <g id="Page-1" stroke="none" stroke-width="1" fill="none" fill-rule="evenodd">
        <g id="citizenspring-logo">
            <path d="M575.11,18.86 C574.61,14.64 574.52,10.09 571.98,6.5 C569.5262,2.57892883 565.205202,0.221331941 560.58,0.28 C538.653317,0.442874205 516.917444,4.36994383 496.32,11.89 C473.49,20.4 450.98,35.39 434.78,54.89 C434.727841,54.0222624 434.631046,53.1577851 434.49,52.3 C431.358259,31.5746381 417.938039,13.8479013 398.84,5.21 C363.73,-10.53 321.84,11.05 313.96,48.54 C313.79,49.3 313.67,50.05 313.54,50.76 C300.590619,36.6959633 285.072121,25.2369846 267.82,17 C254.359317,10.6720615 240.10799,6.18509651 225.45,3.66 C218.469516,2.41719246 211.430466,1.52938435 204.36,1 C198.27,0.54 189.83,-1.42 184.41,2.17 C177.89,6.51 177.48,13.36 176.72,20.5 C175.88255,28.7619188 175.641926,37.0734701 176,45.37 C176.630836,61.2086536 180.053376,76.8115116 186.11,91.46 C195.133958,112.894697 209.455164,131.685688 227.73,146.07 C232.373997,149.819291 237.254045,153.266388 242.34,156.39 C248.296343,160.146052 254.504374,163.487296 260.92,166.39 C266.800271,169.05666 272.838223,171.360966 279,173.29 C281.26,174.05 283.59,174.71 285.89,175.34 C290.77,176.72 295.7,177.8 300.71,178.72 C303.97,179.31 307.27,179.85 310.56,180.27 C315.03,180.89 319.5,181.35 324.01,181.69 C329.77,182.15 349.27,183.19 364.72,180.48 C364.790105,175.886779 363.58922,171.363561 361.25,167.41 C358.7,163.19 352.19,162.27 347.81,160.52 C345.22,159.47 342.59,158.39 340,157.26 C337.45,156.09 334.9,154.92 332.36,153.71 C330.94,153.05 329.52,152.34 328.1,151.63 C324.593333,149.91 321.126667,148.113333 317.7,146.24 C313.11,143.69 308.56,141.02 304.13,138.14 C303.13,137.47 302,136.76 300.96,136.01 C299.04,134.8 297.16,133.46 295.28,132.09 C289.523982,128.033847 283.995617,123.663902 278.72,119 C270.517682,111.812653 262.934296,103.948277 256.05,95.49 C265.606208,103.194 275.585069,110.358481 285.94,116.95 C288.37,118.54 290.83,120.08 293.29,121.63 C297.8,124.47 312.12,132.98 313.58,133.82 C317.88,136.28 322.81,139.82 327.94,140.82 C331.94,138.82 335.94,136.94 340.05,135.14 C343.56,133.6 347.15,132.14 350.74,130.76 C354.54,129.3 359.01,128.63 361.22,125 C363.43,121.37 364.81,117.23 364.31,113.06 C363.837488,108.724546 362.40992,104.547714 360.13,100.83 C357.84,97.07 353.45,95.61 350.03,93.02 C336.13,82.41 328.45,66.42 333.62,49.14 C338.351093,33.0776327 352.171135,21.3601263 368.791001,19.3197988 C385.410867,17.2794712 401.654797,25.3061927 410.130621,39.747221 C418.606445,54.1882494 417.694583,72.2841611 407.81,85.8 C405.30994,89.238032 402.298407,92.273172 398.88,94.8 C395.46,97.31 390.95,98.44 389.23,102.49 C386.175833,109.819215 386.750067,118.158584 390.78,125 C393.33,129.26 399.84,130.18 404.22,131.89 C406.81,132.89 409.44,134.02 412.03,135.14 C412.03,135.19 412.03,135.19 412.03,135.14 C414.58,136.31 417.13,137.48 419.67,138.69 C421.09,139.36 422.51,140.07 423.93,140.78 C426.782679,139.986777 429.519258,138.823562 432.07,137.32 C435.66,135.32 459.25,121.53 466.14,117.07 C476.468006,110.402674 486.435323,103.192558 496,95.47 C489.044017,103.969486 481.390787,111.873586 473.12,119.1 C467.845894,123.70842 462.342204,128.04729 456.63,132.1 C454.83,133.43 453,134.69 451.12,135.94 C445.73,139.57 440.18,142.94 434.46,146.13 C431.08,148.01 427.61,149.84 424.1,151.55 C420.1,153.55 416.1,155.44 412,157.19 C408.49,158.78 404.9,160.24 401.31,161.62 C397.51,163.08 393.04,163.75 390.83,167.38 C388.62,171.01 387.24,175.14 387.74,179.32 C387.747133,179.476097 387.774013,179.630661 387.82,179.78 C402.39,181.53 422.56,182.16 427.99,181.78 C432.54,181.45 437.09,180.99 441.64,180.36 C449.895974,179.278471 458.070737,177.648195 466.11,175.48 C468.53,174.85 470.95,174.18 473.33,173.43 C479.478707,171.48278 485.514649,169.195933 491.41,166.58 C497.806443,163.739007 503.986296,160.433504 509.9,156.69 C512.49,155.1 515.04,153.39 517.5,151.59 C519.96,149.79 522.13,148.13 524.35,146.33 C553.11,122.83 572.24,89.22 575.62,51.89 C576.555942,40.8906814 576.385085,29.8251792 575.11,18.86 Z M310.41,112.05 C297.938807,104.780394 285.917019,96.7658681 274.41,88.05 C263.1,79.33 252.91,69.14 241.55,60.45 C235.92,56.15 227.86,56.45 223.35,62.33 C218.35,68.85 221.68,75.33 225.27,81.33 C235.053332,97.6654758 246.941869,112.643821 260.63,125.88 L261.01,126.25 C265.48,130.47 270.11,134.52 274.91,138.32 C278.29,141.07 281.72,143.7 285.27,146.21 C290.36,149.84 295.62,153.26 300.96,156.48 C303.64,158.11 306.35,159.65 309.11,161.15 C310.4,161.91 311.69,162.57 312.99,163.28 C310.99,163.08 308.9,162.78 306.85,162.49 C303.01,161.91 299.21,161.15 295.45,160.28 C288.480852,158.685597 281.644161,156.55937 275,153.92 C269.250183,151.674365 263.65471,149.052008 258.25,146.07 C252.646192,142.998252 247.263163,139.539882 242.14,135.72 C227.215734,124.689231 214.957769,110.449214 206.27,94.05 C195.46,73.55 191.79,50.34 193.37,27.38 C193.5,25.75 193.16,18.57 194.37,17.56 C195.58,16.55 202.37,18.02 203.94,18.15 C210.066667,18.65 216.16,19.4433333 222.22,20.53 C233.894305,22.5505851 245.289641,25.9406558 256.17,30.63 C267.823846,35.6798823 278.670265,42.4188814 288.36,50.63 C296.79,57.81 306.27,66.75 311.69,76.56 C318.83,86.12 322.63,98.56 324.05,110.63 C324.43,113.92 324.64,117.18 324.72,120.35 C320,117.64 315.17,114.89 310.41,112.05 Z M555.69,67.25 C549.85,92.13 535.44,114.05 516.24,130.71 C514.11,132.55 511.94,134.34 509.68,136.01 C504.630186,139.837905 499.302095,143.284117 493.74,146.32 C488.368044,149.282346 482.802029,151.87826 477.08,154.09 C470.484682,156.676291 463.701667,158.755658 456.79,160.31 C452.9,161.23 448.98,161.98 445.06,162.52 C443.06,162.81 441.06,163.07 438.96,163.27 C440.25,162.61 441.55,161.9 442.8,161.19 C445.6,159.68 448.35,158.1 451.11,156.39 C453.2,155.17 455.28,153.84 457.37,152.5 C460.54,150.5 463.68,148.41 466.72,146.2 C470.23,143.78 473.65,141.2 476.99,138.47 C481.88,134.55 486.6,130.42 491.11,126.03 C505.868934,111.810584 518.544267,95.5767308 528.76,77.81 C532.27,71.72 532.19,64.03 525.84,59.69 C520.08,55.69 513.94,57.69 508.98,61.69 C498.75,70.09 489.1,79.1 478.62,87.25 C466.783359,96.3367463 454.370722,104.647468 441.46,112.13 C436.75,114.97 431.99,117.68 427.27,120.35 C427.347754,117.125583 427.598113,113.907643 428.02,110.71 C434.45,63.49 479.96,30.92 524.63,21.53 C531.331485,20.1283333 538.105074,19.0967715 544.92,18.44 C548.353333,18.1066667 551.776667,17.8566667 555.19,17.69 C557.66,17.56 557.61,17.56 557.91,20.03 C558.2,22.2 558.41,24.37 558.57,26.54 C559.691863,40.1774648 558.720627,53.9063002 555.69,67.25 Z" id="Shape" fill="url(#linearGradient-1)" fill-rule="nonzero"></path>
            <path d="M70.3710834,310.551682 L70.6823547,311.451539 L70.0145363,312.136336 C65.7747873,316.388498 60.7456527,319.772014 55.2093435,322.097016 C49.3092171,324.626408 42.9524544,325.917023 36.5330681,325.888866 C30.1039018,325.888866 24.4953597,324.536251 19.8489288,321.876296 C15.2277258,319.204995 11.3286316,315.445779 8.4903577,310.925208 C5.45896146,306.023571 3.27765155,300.64492 2.03855348,295.016417 C0.651489747,288.750783 -0.0318782179,282.349903 0.00114162143,275.932659 C0.00114162143,267.607568 0.946274344,260.193652 2.83088031,253.917292 C4.71548628,247.640932 7.35846222,242.219152 10.7088728,237.974544 C16.9995846,229.69928 26.8349565,224.888637 37.2291838,225.003022 C42.0202106,224.9448 46.7842501,225.728271 51.3043041,227.317748 C55.2484532,228.69093 58.9206793,230.746381 62.1535222,233.390367 C65.0790269,235.803396 67.4707921,238.798403 69.1769337,242.185195 C70.8194942,245.399136 71.6804284,248.955337 71.6897416,252.564677 C71.6897416,257.567655 69.0637441,260.335139 64.2814857,260.335139 C62.5782174,260.29371 60.8865224,260.042807 59.2445509,259.588088 L58.0786985,259.293795 L58.0786985,258.082667 C58.0707103,255.426018 57.6896914,252.783652 56.946803,250.232972 C56.2314756,247.746137 55.0098883,245.433985 53.3586944,243.441599 C51.6211352,241.375341 49.4387207,239.728856 46.9748039,238.625384 C43.9611058,237.351207 40.7093847,236.737529 37.4385845,236.82567 C30.0812639,236.82567 24.5406356,239.977999 20.5167471,246.492058 C16.3796692,253.124965 14.291322,262.774374 14.291322,275.174289 C14.291322,287.574204 16.4532424,297.314165 20.6978504,303.901796 C24.8632258,310.364919 30.5792979,313.522908 38.191295,313.522908 C45.9787359,313.522908 54.0378317,309.980075 62.0742896,302.984961 L62.9118922,302.254888 L63.8796628,302.820836 C66.9266698,304.504384 69.2399855,307.259388 70.3710834,310.551682 Z" id="Path" fill="#341B5C"></path>
            <path d="M96.5035887,236.053436 C96.5035887,239.268019 95.7565377,241.395983 94.2397978,242.590133 C92.8419068,243.722028 90.7592192,244.254019 87.8842047,244.254019 C85.8025212,244.327561 83.7325255,243.912786 81.8398828,243.042891 C79.9269795,242.046823 79.0101441,239.766053 79.0101441,236.053436 C78.9307474,234.054382 79.3182943,232.064328 80.1420396,230.241153 L80.3288024,229.850649 L80.7023279,229.618611 C82.4397874,228.531991 84.805449,228 87.8955236,228 C90.9855983,228 93.0852644,228.531991 94.4039226,229.601632 C95.818792,230.750506 96.5035887,232.867151 96.5035887,236.053436 Z" id="Path" fill="#341B5C"></path>
            <path d="M96.8245963,263.517036 L96.8245963,323.15095 L95.5625328,323.399967 C93.7731602,323.716189 91.9576032,323.86022 90.1407535,323.830087 C88.3239277,323.859459 86.5084432,323.715433 84.7189741,323.399967 L83.4738891,323.15095 L83.4738891,268.486058 C83.4738891,265.53747 82.9079414,264.55838 82.619308,264.275406 C82.121274,263.709459 80.9893785,263.403847 79.3594491,263.403847 L77.0277444,263.403847 L76.6542189,262.39646 C76.1898247,261.020994 75.9695599,259.574908 76.003379,258.123555 C75.9815182,256.642776 76.1954818,255.167955 76.6372404,253.754438 L76.9485117,252.809305 L77.9445797,252.701775 C79.6820393,252.515012 81.113887,252.356547 82.2005067,252.22072 C83.138814,252.093637 84.0835814,252.019946 85.0302454,252 L86.1338435,252 C89.4446378,252 92.0819542,253.08662 93.9948576,255.220243 C95.9077609,257.353866 96.8245963,260.098712 96.8245963,263.517036 Z" id="Path" fill="#341B5C"></path>
            <path d="M147.250743,258.820263 C147.240361,260.24632 147.090616,261.667948 146.803645,263.064871 L146.554628,264.321275 L129.276243,264.179788 L129.276243,309.087741 C129.276243,312.098583 130.379841,313.343668 133.113369,313.343668 L144.658703,313.343668 L145.060526,314.30578 C145.76207,315.980632 146.13113,317.775956 146.147145,319.591731 C146.147145,321.980031 145.932085,322.727082 145.700047,323.196819 L145.326521,323.926891 L144.517216,324.034421 C140.091497,324.600205 135.633898,324.879986 131.172168,324.872024 C118.800551,324.872024 116.20851,317.786358 116.20851,311.855226 L116.20851,264.196767 L106.666631,264.321275 L106.445912,263.064871 C105.851363,260.266362 105.851363,257.374164 106.445912,254.575655 L106.694929,253.319251 L116.236807,253.44376 L116.236807,240.489216 C116.236807,237.659477 116.689566,235.622066 117.61772,234.263791 C118.659064,232.75837 120.53801,232 123.180986,232 L127.561422,232 L129.304541,233.743119 L129.304541,253.55129 L146.582925,253.290954 L146.831942,254.547358 C147.111396,255.954469 147.251672,257.385671 147.250743,258.820263 Z" id="Path" fill="#341B5C"></path>
            <path d="M171.497978,236.053436 C171.497978,239.268019 170.756586,241.395983 169.234187,242.590133 C167.836296,243.722028 165.753608,244.254019 162.884253,244.254019 C160.80257,244.327561 158.732574,243.912786 156.839932,243.042891 C154.927028,242.046823 154.010193,239.766053 154.010193,236.053436 C153.930587,234.054366 154.318144,232.064265 155.142088,230.241153 L155.323192,229.850649 L155.696717,229.618611 C157.439836,228.531991 159.799838,228 162.895572,228 C165.991306,228 168.079654,228.531991 169.403971,229.601632 C170.818841,230.750506 171.497978,232.867151 171.497978,236.053436 Z" id="Path" fill="#341B5C"></path>
            <path d="M171.807262,263.517036 L171.807262,323.15095 L170.567837,323.399967 C166.976065,323.973453 163.31605,323.973453 159.724278,323.399967 L158.479193,323.15095 L158.479193,268.486058 C158.479193,265.53747 157.913245,264.55838 157.624612,264.275406 C157.126578,263.709459 155.994683,263.403847 154.359094,263.403847 L152.033048,263.403847 L151.659523,262.39646 C151.193207,261.021336 150.971026,259.575241 151.003024,258.123555 C150.982897,256.642467 151.198774,255.167624 151.642545,253.754438 L151.953816,252.809305 L152.944224,252.701775 C154.687343,252.515012 156.119191,252.356547 157.205811,252.22072 C158.144078,252.093259 159.088867,252.019566 160.035549,252 L161.139148,252 C164.449942,252 167.092918,253.08662 169.005821,255.220243 C170.918724,257.353866 171.807262,260.098712 171.807262,263.517036 Z" id="Path" fill="#341B5C"></path>
            <path d="M235.295645,317.082262 C235.295645,319.612049 234.129793,323.873635 226.285757,323.873635 L184.116991,323.873635 L183.743466,322.832291 C183.177518,321.247638 182.747398,319.912001 182.470083,318.870657 C182.182766,317.886047 182.02486,316.868219 182.000347,315.842837 C181.990663,314.925312 182.183923,314.016991 182.566294,313.182882 C182.989895,312.312851 183.512108,311.4944 184.122651,310.743648 L210.099652,275.08894 L219.052945,263.956748 C217.666373,264.0473 216.053422,264.126533 214.248049,264.205765 C211.050444,264.341593 207.151064,264.420825 202.640461,264.420825 L184.767831,264.420825 L184.518814,263.1814 C184.30503,262.075656 184.200769,260.95153 184.207543,259.82533 C184.207543,258.936792 184.258478,258.002978 184.34903,257.040867 C184.445166,256.089667 184.596339,255.144838 184.801788,254.211128 L185.079102,253 L232.420631,253 L232.828113,253.933814 C234.118474,256.933337 234.752335,259.16883 234.752335,260.770462 C234.68345,262.678248 233.9917,264.510988 232.782837,265.988501 L207.207659,300.828243 C206.194613,302.299707 204.734467,304.22393 202.883818,306.544316 L198.039306,312.605616 C201.904729,312.418853 205.668281,312.322642 209.273368,312.322642 L216.885365,312.322642 C224.389832,312.322642 229.60787,311.796311 232.375355,310.754967 L233.852479,310.189019 L234.37881,311.677462 C234.998012,313.411616 235.308324,315.240919 235.295645,317.082262 Z" id="Path" fill="#341B5C"></path>
            <path d="M294.584128,269.973891 C293.415961,266.338289 291.551402,262.964783 289.094435,260.041508 C286.621829,257.206819 283.557964,254.948523 280.118504,253.425579 C276.322354,251.769718 272.216283,250.943873 268.075136,251.003323 C263.819658,250.9355 259.611877,251.906825 255.816708,253.833062 C252.221159,255.702296 249.088723,258.351331 246.648355,261.586546 C244.028007,265.100288 242.089201,269.073881 240.932283,273.301664 C239.604714,278.123189 238.95518,283.106126 239.002401,288.106857 C238.972262,293.014142 239.500096,297.908947 240.575736,302.696989 C241.499901,306.902168 243.196268,310.899379 245.578714,314.485681 C247.850855,317.840945 250.919229,320.580703 254.509369,322.459884 C258.131434,324.355809 262.51187,325.334899 267.526167,325.334899 C276.914443,325.420284 286.102557,322.620982 293.848396,317.315419 L294.66902,316.749472 L294.516215,315.770382 C294.064154,312.712294 292.570947,309.903784 290.288585,307.818816 L289.467961,307.071765 L288.50019,307.637713 C281.663541,311.35033 275.172121,313.246255 269.190053,313.246255 C259.059589,313.246255 253.74534,306.568072 252.964332,292.843839 L295.585856,292.843839 L295.75564,291.491224 C295.942403,290.093333 296.117847,288.621869 296.253674,287.082491 C296.389502,285.543113 296.457415,283.862249 296.457415,282.170065 C296.481753,278.031199 295.849469,273.914667 294.584128,269.973891 Z M268.414705,261.988369 C273.247899,261.988369 276.745456,263.686212 279.122436,267.127174 C281.589968,270.720942 282.835053,275.582433 282.835053,281.592798 L282.835053,281.841815 L253.026586,281.841815 C253.52462,275.922002 255.047019,271.122765 257.554168,267.545975 C260.100933,263.805061 263.677722,261.988369 268.414705,261.988369 Z" id="Shape" fill="#341B5C" fill-rule="nonzero"></path>
            <path d="M365.730601,321.554977 L365.017507,322.28505 C363.246091,324.056466 360.682347,324.945004 357.416829,324.945004 C354.870064,324.945004 350.625456,323.869703 350.625456,316.614253 L350.625456,278.322229 C350.625456,273.01364 349.985935,269.267065 348.763488,267.15608 C347.671209,265.288453 345.526267,264.388596 342.221132,264.388596 C338.454035,264.477946 334.760029,265.446993 331.434168,267.218335 C327.992533,268.908413 324.904082,271.238196 322.333729,274.083281 L322.333729,323.886682 L321.088644,324.135699 C317.496872,324.709185 313.836857,324.709185 310.245085,324.135699 L309,323.886682 L309,254.444894 L310.73746,252.701775 L315.265041,252.701775 C318.026866,252.701775 319.956748,253.528059 320.998092,255.14101 C321.756462,256.323841 322.192242,257.936792 322.31675,260.053436 C325.054246,257.928871 328.058657,256.172652 331.253065,254.829739 C335.461606,253.004029 339.993837,252.041771 344.581134,252 C351.264977,252 356.250977,254.207196 359.403306,258.593291 C362.419807,262.820921 363.947866,268.35589 363.947866,275.147262 L363.947866,309.438036 C363.947866,314.48629 364.428921,318.249842 365.357076,320.626823 L365.730601,321.554977 Z" id="Path" fill="#341B5C"></path>
            <path d="M467.743944,297.641394 C467.743944,306.074016 464.840632,312.989897 459.073625,318.15134 C453.306617,323.312784 444.500471,325.887846 432.734417,325.887846 C421.194743,325.887846 410.424757,322.299737 400.696116,315.214072 L400,314.699059 L400.062254,313.8275 C400.384844,309.973396 402.218515,306.758812 405.529309,304.274302 L406.417847,303.606484 L407.334683,304.229026 C416.423803,310.397856 425.44501,313.504909 434.120989,313.504909 C440.289819,313.504909 445.196586,312.214549 448.677165,309.667784 C452.072851,307.177614 453.7141,303.883798 453.7141,299.582595 C453.7141,293.085515 449.220475,287.94105 439.978548,283.843589 L423.82074,276.803199 C410.803942,271.211635 404.210651,262.914841 404.210651,252.144856 C404.201093,248.471031 405.007146,244.840891 406.570653,241.516357 C408.129364,238.210399 410.357109,235.26384 413.113009,232.863016 C416.045872,230.338206 419.423835,228.382442 423.073689,227.096009 C427.200121,225.665546 431.542273,224.95717 435.909384,225.002002 C445.04378,225.002002 454.47247,227.265793 463.952094,231.793375 L464.840632,232.217836 L464.840632,233.208244 C464.909639,237.143745 463.102674,240.87744 459.973482,243.265136 L459.198133,243.898997 L458.298277,243.43492 C454.410409,241.398895 450.323536,239.767939 446.102103,238.567769 C439.106989,236.72278 433.085305,236.643547 428.47849,238.262158 C426.442266,238.954678 424.53119,239.97137 422.819013,241.273 C421.357134,242.399405 420.153039,243.825409 419.287499,245.455353 C418.503523,246.966851 418.088497,248.642469 418.076371,250.345142 C418.076371,254.001164 419.072439,256.734692 421.138148,258.709849 C423.328366,260.820835 426.497673,262.733738 430.53854,264.369327 L446.186995,271.1607 C460.505473,277.425741 467.743944,286.328099 467.743944,297.641394 Z" id="Path" fill="#341B5C"></path>
            <path d="M529.437262,261.187439 C525.181335,254.396066 518.791785,251.00038 510.421418,251.00038 C503.581965,250.963923 496.989623,253.555074 492.005479,258.238851 C491.865455,256.962727 491.43572,255.735463 490.749075,254.650742 C489.662455,253.04911 487.715595,252.239805 484.965089,252.239805 L480.743119,252.239805 L479,253.982924 L479,351.637206 L480.743119,353.374666 L485.106576,353.374666 C487.857082,353.374666 489.769985,352.616296 490.811329,351.110875 C491.739484,349.775238 492.192242,347.715189 492.192242,344.88545 L492.192242,320.295021 C497.230273,323.201551 502.941224,324.739039 508.757532,324.754689 C512.296961,324.737889 515.777226,323.845463 518.887997,322.156989 C522.233504,320.330602 525.15989,317.824475 527.479083,314.799668 C530.097946,311.34499 532.100636,307.46406 533.398897,303.327907 C534.939319,298.42968 535.690107,293.317446 535.623071,288.183146 C535.623071,276.818915 533.540384,267.729795 529.437262,261.187439 Z M506.471103,312.932041 C502.073689,312.932041 497.257474,311.09837 492.192242,307.459326 L492.192242,273.078001 C494.09292,270.093237 496.662182,267.591791 499.696709,265.771615 C502.624364,264.021843 505.96939,263.093212 509.380075,263.083364 C511.015769,263.080456 512.617475,263.550158 513.992549,264.435979 C515.63987,265.544476 516.998196,267.030873 517.954183,268.771139 C519.299864,271.19368 520.283721,273.80014 520.874473,276.507644 C521.679108,280.193059 522.058882,283.958523 522.006369,287.730388 C522.006369,296.321474 520.483969,302.767619 517.478787,306.916016 C514.581134,310.973861 510.94775,312.932041 506.471103,312.932041 Z" id="Shape" fill="#341B5C" fill-rule="nonzero"></path>
            <path d="M586.536632,253.103598 L586.536632,254.422256 C586.536632,258.666864 585.665072,262.209697 583.95591,264.926246 L583.440898,265.735552 L582.507084,265.656319 C581.420464,265.565767 579.835811,265.520491 577.78708,265.520491 C571.029664,265.520491 566.009708,269.250087 562.506491,276.890382 L562.506491,323.864044 L561.244428,324.113061 C557.652656,324.686547 553.992641,324.686547 550.400869,324.113061 L549.155784,323.864044 L549.155784,273.647501 C549.155784,267.852196 547.650363,263.460442 544.667818,260.670319 L544,260.036458 L544.232039,259.130942 C545.013361,256.326655 546.835057,253.926064 549.325568,252.418801 L549.993387,252 L550.706481,252.282974 C555.307636,253.980817 558.584473,257.297271 560.508696,262.085189 C564.628795,255.605087 570.695755,252.311271 578.658639,252.311271 C580.87137,252.331589 583.079321,252.520787 585.26325,252.877219 L586.536632,253.103598 Z" id="Path" fill="#341B5C"></path>
            <path d="M608.502968,236.053436 C608.502968,239.268019 607.755917,241.395983 606.239178,242.590133 C604.841287,243.722028 602.758599,244.254019 599.883584,244.254019 C597.801952,244.32693 595.732101,243.912185 593.839263,243.042891 C591.932019,242.046823 591.009524,239.766053 591.009524,236.053436 C590.932823,234.054589 591.32025,232.065148 592.141419,230.241153 L592.345161,229.850649 L592.701708,229.618611 C594.456146,228.531991 596.804829,228 599.894903,228 C602.984978,228 605.101623,228.531991 606.408962,229.601632 C607.818172,230.750506 608.502968,232.867151 608.502968,236.053436 Z" id="Path" fill="#341B5C"></path>
            <path d="M608.824618,263.517036 L608.824618,323.15095 L607.562554,323.399967 C603.976478,323.973463 600.32205,323.973463 596.735974,323.399967 L595.47957,323.15095 L595.47957,268.486058 C595.47957,265.53747 594.913622,264.55838 594.636308,264.275406 C594.126955,263.709459 592.9894,263.403847 591.359471,263.403847 L589.027766,263.403847 L588.65424,262.379482 C588.189759,261.009894 587.969465,259.569363 588.0034,258.123555 C587.980444,256.642281 588.196387,255.16699 588.642921,253.754438 L588.965512,252.809305 L589.96158,252.701775 C591.68772,252.515012 593.113909,252.356547 594.217507,252.22072 C595.15569,252.092474 596.100524,252.018777 597.047245,252 L598.179141,252 C601.489935,252 604.127252,253.08662 606.040155,255.220243 C607.953058,257.353866 608.824618,260.098712 608.824618,263.517036 Z" id="Path" fill="#341B5C"></path>
            <path d="M682.719282,321.554977 L681.98921,322.28505 C680.217793,324.056466 677.665369,324.945004 674.388532,324.945004 C671.858745,324.945004 667.597159,323.869703 667.597159,316.614253 L667.597159,278.322229 C667.597159,273.01364 666.974616,269.267065 665.729531,267.15608 C664.642912,265.288453 662.49797,264.388596 659.187175,264.388596 C655.431791,264.48445 651.750287,265.453267 648.434168,267.218335 C644.993802,268.905119 641.908477,271.235442 639.345048,274.083281 L639.345048,323.886682 L638.088644,324.135699 C634.500672,324.709223 630.844376,324.709223 627.256404,324.135699 L626,323.886682 L626,254.444894 L627.73746,252.701775 L632.265041,252.701775 C635.032526,252.701775 636.956748,253.528059 637.998092,255.14101 C638.838568,256.64309 639.288113,258.33229 639.305431,260.053436 C642.049304,257.932258 645.056993,256.176346 648.253065,254.829739 C652.463076,253.002404 656.997487,252.040092 661.586794,252 C668.253658,252 673.239658,254.207196 676.391987,258.593291 C679.436785,262.815261 680.976163,268.378528 680.976163,275.124625 L680.976163,309.415398 C680.976163,314.463652 681.44024,318.227204 682.391033,320.604185 L682.719282,321.554977 Z" id="Path" fill="#341B5C"></path>
            <path d="M752.159145,258.125302 C751.216683,255.488066 749.356387,253.278211 746.918469,251.899877 L746.301586,251.54333 L745.61679,251.775368 C742.554842,252.773794 739.947286,254.827745 738.259469,257.570673 C733.008308,253.324444 726.460859,251.005472 719.707702,251.00002 C716.008103,250.995255 712.358658,251.855772 709.050906,253.512828 C705.619819,255.259983 702.6123,257.736309 700.2391,260.768278 C697.56561,264.236178 695.528693,268.150967 694.223075,272.33059 C692.682512,277.347126 691.934006,282.573295 692.00456,287.82058 C692.00456,299.224426 694.149502,308.28525 698.343175,314.731394 C702.695313,321.398259 708.937717,324.771307 716.940218,324.771307 C723.697634,324.771307 729.957016,322.377348 735.571217,317.657344 L735.571217,322.111353 C735.602604,325.094767 735.331449,328.073677 734.761912,331.002392 C734.341266,333.295464 733.423701,335.468643 732.07366,337.369304 C730.767581,339.117638 729.005336,340.472608 726.980131,341.285662 C724.772934,342.219476 721.886601,342.683553 718.451298,342.683553 C712.11657,342.646772 705.871134,341.186473 700.176846,338.410648 L699.118523,337.901295 L698.343175,338.784173 C696.21677,341.300455 695.049894,344.488313 695.049359,347.782742 L695.015402,348.841065 L695.983173,349.259866 C703.700175,352.533984 712.010106,354.179401 720.392499,354.09306 C724.478161,354.169702 728.541437,353.472646 732.367953,352.038669 C735.889678,350.656453 738.964887,348.334875 741.258992,345.326529 C743.590697,342.315687 745.373432,338.410648 746.58456,333.690644 C747.750413,329.061191 748.355977,323.401714 748.355977,316.865017 L748.355977,273.445507 C748.355977,266.546604 749.487872,261.945449 751.751663,259.77221 L752.481736,259.070434 L752.159145,258.125302 Z M718.004199,312.959978 C714.693405,312.959978 711.897623,311.092351 709.475367,307.226927 C706.939921,303.203039 705.65522,296.813489 705.65522,288.239381 C705.65522,279.665273 707.126684,273.117257 710.046974,268.906606 C712.876713,264.820463 716.527076,262.833987 721.173507,262.833987 C723.67113,262.88722 726.133375,263.435454 728.417638,264.446938 C731.019588,265.580135 733.438206,267.094632 735.593855,268.940563 L735.593855,303.695414 C733.51255,306.384242 730.919764,308.634657 727.96488,310.317002 C724.937759,312.065665 721.500049,312.977831 718.004199,312.959978 Z" id="Shape" fill="#341B5C" fill-rule="nonzero"></path>
        </g>
    </g>
</svg>